<svg width="16" height="16" viewBox="0 0 16 16" fill="none" xmlns="http://www.w3.org/2000/svg">
<path d="M3 12.0774H13V5.61548H7.38574L7.10742 5.06763L6.52832 3.9231H3V12.0774ZM14 12.6155L13.9902 12.7083C13.9534 12.8885 13.812 13.0306 13.6318 13.0676L13.5381 13.0774H2.46191L2.36816 13.0676C2.18802 13.0306 2.0466 12.8885 2.00977 12.7083L2 12.6155V3.38501C2 3.16212 2.15806 2.97606 2.36816 2.93286L2.46191 2.9231H6.85938L6.92383 2.92798C7.07182 2.94888 7.20274 3.0403 7.27148 3.17603L8 4.61548H13.5381C13.793 4.61548 14 4.82249 14 5.07739V12.6155Z" fill="white" fill-opacity="0.7"/>
</svg>
