<svg width="16" height="16" viewBox="0 0 16 16" fill="none" xmlns="http://www.w3.org/2000/svg">
<path d="M14.7383 10.4785V13.2012H12.0127V10.4785H14.7383ZM7.9082 2.79883C9.72197 2.79895 11.2205 4.1484 11.4502 5.90039C12.8646 6.08562 14.0177 7.09778 14.4102 8.43555H13.3506C12.9587 7.51504 12.0461 6.86943 10.9824 6.86914H10.4824V6.36914C10.4824 4.94862 9.32988 3.79896 7.9082 3.79883C6.48732 3.79901 5.33512 4.95118 5.33496 6.37207V6.87207H4.83496C3.41386 6.87216 2.26197 8.02442 2.26172 9.44531C2.26172 10.8664 3.41391 12.0194 4.83496 12.0195H9.96973V13.0195H4.83496C2.86162 13.0194 1.26172 11.4187 1.26172 9.44531C1.26195 7.63107 2.61436 6.13297 4.36621 5.90332C4.59595 4.15169 6.09396 2.79899 7.9082 2.79883Z" fill="white" fill-opacity="0.7"/>
</svg>
