<svg width="16" height="16" viewBox="0 0 16 16" fill="none" xmlns="http://www.w3.org/2000/svg">
<path d="M3 4H9V3H2.5C2.22386 3 2 3.22386 2 3.5V13.5L2.00977 13.6006C2.05629 13.8286 2.25829 14 2.5 14H13V13H3V4Z" fill="white"/>
<path d="M9.0013 5.69652C9.40856 5.23836 10.1666 5.52624 10.1667 6.13923V10.9556H9.09961V9.78897H6.79102L5.75391 10.9556H4.32617L9.0013 5.69652ZM13 10.9556H12V7.1223H13V10.9556ZM7.67969 8.78897H9.09961V7.19131L7.67969 8.78897ZM12.4355 1.05069C12.4522 0.983104 12.5484 0.983104 12.5651 1.05069L12.8737 2.30134C12.9686 2.68596 13.269 2.98631 13.6536 3.08129L14.9049 3.39053C14.9721 3.40742 14.9722 3.50328 14.9049 3.52009L13.6536 3.82868C13.269 3.92364 12.9687 4.22399 12.8737 4.60863L12.5651 5.85928C12.5484 5.92687 12.4522 5.92687 12.4355 5.85928L12.1263 4.60863C12.0314 4.2241 11.7315 3.92372 11.347 3.82868L10.0957 3.52009C10.0281 3.50341 10.0281 3.40722 10.0957 3.39053L11.347 3.08129C11.7315 2.98623 12.0314 2.68586 12.1263 2.30134L12.4355 1.05069Z" fill="white"/>
</svg>
