<svg width="40" height="40" viewBox="0 0 40 40" fill="none" xmlns="http://www.w3.org/2000/svg">
<path d="M11.7237 11.5531C11.893 11.2141 12.2394 11 12.6183 11H27.382C27.7607 11 28.107 11.214 28.2764 11.5528L29.8944 14.7889C29.9639 14.9277 30 15.0808 30 15.2361V28C30 28.5523 29.5523 29 29 29H11C10.4477 29 10 28.5523 10 28V15.2394C10 15.0843 10.0361 14.9313 10.1054 14.7925L11.7237 11.5531ZM26.3765 15C27.059 15 27.541 14.3313 27.3252 13.6838L26.9918 12.6838C26.8557 12.2754 26.4736 12 26.0431 12H13.9575C13.527 12 13.1448 12.2756 13.0088 12.684L12.6757 13.684C12.4601 14.3315 12.942 15 13.6245 15H26.3765Z" fill="url(#paint0_linear_0_105)" fill-opacity="0.08"/>
<path d="M11.7237 11.5531C11.893 11.2141 12.2394 11 12.6183 11H27.382C27.7607 11 28.107 11.214 28.2764 11.5528L29.8944 14.7889C29.9639 14.9277 30 15.0808 30 15.2361V28C30 28.5523 29.5523 29 29 29H11C10.4477 29 10 28.5523 10 28V15.2394C10 15.0843 10.0361 14.9313 10.1054 14.7925L11.7237 11.5531ZM26.3765 15C27.059 15 27.541 14.3313 27.3252 13.6838L26.9918 12.6838C26.8557 12.2754 26.4736 12 26.0431 12H13.9575C13.527 12 13.1448 12.2756 13.0088 12.684L12.6757 13.684C12.4601 14.3315 12.942 15 13.6245 15H26.3765Z" fill="white" fill-opacity="0.08"/>
<path d="M27.3818 10.75C27.8553 10.75 28.2883 11.0179 28.5 11.4414L30.1182 14.6768C30.2049 14.8503 30.25 15.0423 30.25 15.2363V28C30.25 28.6904 29.6904 29.25 29 29.25H11C10.3097 29.25 9.75 28.6904 9.75 28V15.2393C9.75002 15.0454 9.7952 14.8541 9.88184 14.6807L11.5 11.4414C11.7116 11.0177 12.1446 10.75 12.6182 10.75H27.3818ZM13.957 12.25C13.6345 12.2502 13.3482 12.4567 13.2461 12.7627L12.9131 13.7627C12.7514 14.2482 13.1124 14.7497 13.624 14.75H26.377C26.8886 14.7497 27.2497 14.2482 27.0879 13.7627L26.7549 12.7627C26.6528 12.4565 26.3658 12.25 26.043 12.25H13.957Z" stroke="url(#paint1_linear_0_105)" stroke-opacity="0.2" stroke-width="0.5"/>
<path d="M20.7895 25L25 21.6991L20.7895 18V20.5464L15 20.5465V22.6422H20.7895V25Z" fill="white" fill-opacity="0.7"/>
<defs>
<linearGradient id="paint0_linear_0_105" x1="8.5" y1="20" x2="30" y2="20" gradientUnits="userSpaceOnUse">
<stop stop-color="#FDBB61"/>
<stop offset="0.295" stop-color="#D4EAE8"/>
<stop offset="0.625" stop-color="#80B7EC"/>
<stop offset="0.975" stop-color="#AD9EFE"/>
</linearGradient>
<linearGradient id="paint1_linear_0_105" x1="11.5556" y1="9.43478" x2="35.1261" y2="17.1924" gradientUnits="userSpaceOnUse">
<stop stop-color="white"/>
<stop offset="1" stop-color="white"/>
</linearGradient>
</defs>
</svg>
