<svg width="16" height="16" viewBox="0 0 16 16" fill="none" xmlns="http://www.w3.org/2000/svg">
<path fill-rule="evenodd" clip-rule="evenodd" d="M7.33331 2.33337C4.5719 2.33337 2.33331 4.57196 2.33331 7.33337C2.33331 10.0948 4.5719 12.3334 7.33331 12.3334C8.59406 12.3334 9.74582 11.8668 10.6253 11.0968L13.0976 13.5691L13.3333 13.8048L13.8047 13.3334L13.569 13.0977L11.0967 10.6254C11.8667 9.74588 12.3333 8.59412 12.3333 7.33337C12.3333 4.57196 10.0947 2.33337 7.33331 2.33337ZM2.99998 7.33337C2.99998 4.94015 4.94009 3.00004 7.33331 3.00004C9.72654 3.00004 11.6666 4.94015 11.6666 7.33337C11.6666 9.7266 9.72654 11.6667 7.33331 11.6667C4.94009 11.6667 2.99998 9.7266 2.99998 7.33337Z" fill="white" fill-opacity="0.3"/>
</svg>
